<svg width="32" height="32" viewBox="0 0 32 32" fill="none" xmlns="http://www.w3.org/2000/svg">
<path d="M18.6667 27.2V19.4667C18.6667 19.0248 19.0248 18.6667 19.4667 18.6667H27.2C27.6419 18.6667 28 19.0248 28 19.4667V27.2C28 27.6419 27.6419 28 27.2 28H19.4667C19.0248 28 18.6667 27.6419 18.6667 27.2Z" stroke="black" stroke-width="2"/>
<path d="M4 27.2V19.4667C4 19.0248 4.35817 18.6667 4.8 18.6667H12.5333C12.9752 18.6667 13.3333 19.0248 13.3333 19.4667V27.2C13.3333 27.6419 12.9752 28 12.5333 28H4.8C4.35817 28 4 27.6419 4 27.2Z" stroke="black" stroke-width="2"/>
<path d="M18.6667 12.5333V4.8C18.6667 4.35817 19.0248 4 19.4667 4H27.2C27.6419 4 28 4.35817 28 4.8V12.5333C28 12.9752 27.6419 13.3333 27.2 13.3333H19.4667C19.0248 13.3333 18.6667 12.9752 18.6667 12.5333Z" stroke="black" stroke-width="2"/>
<path d="M4 12.5333V4.8C4 4.35817 4.35817 4 4.8 4H12.5333C12.9752 4 13.3333 4.35817 13.3333 4.8V12.5333C13.3333 12.9752 12.9752 13.3333 12.5333 13.3333H4.8C4.35817 13.3333 4 12.9752 4 12.5333Z" stroke="black" stroke-width="2"/>
</svg>
