<svg width="32" height="32" viewBox="0 0 32 32" fill="none" xmlns="http://www.w3.org/2000/svg">
<path d="M18.6 6.1C18.6 5.82422 18.6543 5.55115 18.7599 5.29636C18.8654 5.04158 19.0201 4.81008 19.2151 4.61508C19.4101 4.42007 19.6416 4.26539 19.8964 4.15985C20.1511 4.05432 20.4242 4 20.7 4C20.9758 4 21.2489 4.05432 21.5036 4.15985C21.7584 4.26539 21.9899 4.42007 22.1849 4.61508C22.3799 4.81008 22.5346 5.04158 22.6401 5.29636C22.7457 5.55115 22.8 5.82422 22.8 6.1V10.1M18.6 6.1V4.1C18.6 3.54305 18.3788 3.0089 17.9849 2.61508C17.5911 2.22125 17.057 2 16.5 2C15.943 2 15.4089 2.22125 15.0151 2.61508C14.6212 3.0089 14.4 3.54305 14.4 4.1V6.1M18.6 6.1L18.5 14M22.8 10.1C22.8 9.54305 23.0212 9.0089 23.4151 8.61508C23.8089 8.22125 24.343 8 24.9 8C25.457 8 25.9911 8.22125 26.3849 8.61508C26.7788 9.0089 27 9.54305 27 10.1V21C27 23.3869 26.0518 25.6761 24.364 27.364C22.6761 29.0518 20.3869 30 18 30H15.3093C13.4529 29.9998 11.6726 29.2621 10.36 27.9493L8.05067 25.64C6.73786 24.3274 6.00022 22.5471 6 20.6907C6 20.6907 5.996 19.0459 5.996 17.992C5.996 17.5 5.45154 17.2392 5.27665 16.6825C5.18071 16.3772 5.11675 16.1545 5.11675 15.8787C5.11675 15.6028 5.17109 15.3297 5.27665 15.0748C5.38222 14.82 5.53694 14.5884 5.732 14.3933C5.92706 14.1983 6.15862 14.0436 6.41348 13.938C6.66833 13.8324 6.94148 13.7781 7.21733 13.7781C7.49318 13.7781 7.76633 13.8324 8.02119 13.938C8.27604 14.0436 8.50761 14.1983 8.70267 14.3933C9.65405 15.3435 10.1909 16.6314 10.196 17.976M22.8 10.1V16M14.4 6.1V15M14.4 6.1C14.4 5.54305 14.1788 5.0089 13.7849 4.61508C13.3911 4.22125 12.857 4 12.3 4C11.743 4 11.2089 4.22125 10.8151 4.61508C10.4212 5.0089 10.2 5.54305 10.2 6.1V20H10.1973" stroke="black" stroke-linecap="round" stroke-linejoin="round"/>
</svg>
