<svg width="32" height="32" viewBox="0 0 32 32" fill="none" xmlns="http://www.w3.org/2000/svg">
<path d="M15.5448 7.21571C15.2634 7.21571 14.9762 7.19226 14.6831 7.14536C14.39 7.08674 14.0676 6.98709 13.7159 6.8464C13.3759 6.70571 13.0945 6.48295 12.8717 6.17812C12.6607 5.8733 12.5552 5.50985 12.5552 5.08778C12.5552 3.64571 13.5283 2.92467 15.4745 2.92467C16.0255 2.92467 16.4886 2.99502 16.8638 3.13571C17.2507 3.2764 17.5321 3.46399 17.7079 3.69847C17.8955 3.93295 18.0245 4.16157 18.0948 4.38433C18.1652 4.60709 18.2003 4.84743 18.2003 5.10536C18.2003 5.63295 18.0362 6.06674 17.7079 6.40674C17.3797 6.74674 17.0279 6.9695 16.6528 7.07502C16.2893 7.16881 15.92 7.21571 15.5448 7.21571ZM18.4466 11.8761V24.6964C18.4466 24.8723 18.4524 25.013 18.4641 25.1185C18.4876 25.2123 18.5286 25.3236 18.5872 25.4526C18.6576 25.5816 18.7748 25.6812 18.939 25.7516C19.1031 25.8102 19.3141 25.8395 19.5721 25.8395C20.0176 25.8395 20.3986 25.9098 20.7152 26.0505C21.0317 26.1912 21.19 26.4023 21.19 26.6836C21.19 28.0554 20.9966 28.9112 20.6097 29.2512C19.5545 29.1574 18.2648 29.1105 16.7407 29.1105C15.1579 29.1105 14.6807 29.1574 13.309 29.2512C12.9221 28.8995 12.7286 28.0436 12.7286 26.6836C12.7286 26.4023 12.8869 26.1912 13.2034 26.0505C13.52 25.9098 13.901 25.8395 14.3466 25.8395C14.8038 25.8395 15.1028 25.7457 15.2434 25.5581C15.3841 25.3588 15.4545 25.0833 15.4545 24.7316V15.2878C15.4545 14.6664 15.2728 14.2267 14.9093 13.9688C14.5576 13.7109 13.8717 13.5585 12.8517 13.5116C12.6993 13.4764 12.5997 13.4002 12.5528 13.283C12.5176 13.1657 12.5 12.9136 12.5 12.5267C12.5 11.9288 12.5645 11.4012 12.6934 10.944C12.8224 10.4867 12.9514 10.223 13.0803 10.1526C13.9831 10.2816 14.8566 10.3461 15.7007 10.3461C16.2634 10.3461 15.8555 10.3167 16.4769 10.2581C17.0983 10.1878 17.4266 10.1526 17.4617 10.1526C17.8721 10.1526 18.1359 10.2581 18.2531 10.4692C18.3821 10.6685 18.4466 11.1374 18.4466 11.8761Z" fill="black"/>
</svg>
