<svg width="32" height="32" viewBox="0 0 32 32" fill="none" xmlns="http://www.w3.org/2000/svg">
<path d="M19.5321 28.1242L10.0057 24.9487C9.69623 24.8455 9.4564 24.5978 9.3634 24.285L3.57739 4.82263L4.85206 3.58896L23.809 9.90794C24.0848 9.99984 24.3068 10.2071 24.4175 10.4759L28.1142 19.4535C28.2679 19.8268 28.1821 20.256 27.8966 20.5415L20.5554 27.8825C20.2876 28.1503 19.8914 28.244 19.5321 28.1242Z" stroke="black" stroke-linecap="round" stroke-linejoin="round"/>
<path d="M4.5 4.5L14.8152 14.7666" stroke="black" stroke-linecap="round" stroke-linejoin="round"/>
<path d="M18.3507 18.3025C19.3271 17.3262 19.3271 15.7432 18.3507 14.7669C17.3744 13.7906 15.7914 13.7906 14.8152 14.7669C13.8389 15.7432 13.8389 17.3262 14.8152 18.3025C15.7914 19.2787 17.3744 19.2787 18.3507 18.3025Z" stroke="black" stroke-linecap="round" stroke-linejoin="round"/>
</svg>
