<svg width="32" height="32" viewBox="0 0 32 32" fill="none" xmlns="http://www.w3.org/2000/svg">
<path fill-rule="evenodd" clip-rule="evenodd" d="M12.2739 2.48682C12.7175 2.48693 13.1649 2.73908 13.6294 3.20361L28.7144 18.2886C28.9755 18.5497 29.2075 18.7915 29.3774 19.0405C29.5455 19.2869 29.6107 19.4814 29.6108 19.6431C29.6108 19.8048 29.5456 19.9991 29.3774 20.2456C29.2074 20.4948 28.9756 20.7373 28.7144 20.9985L21.1714 28.5415C20.8941 28.8188 20.6536 29.0673 20.395 29.2593C20.1387 29.4495 19.9537 29.5132 19.8159 29.5132C19.6782 29.5131 19.494 29.4494 19.2378 29.2593C18.979 29.0672 18.7379 28.819 18.4604 28.5415L3.37549 13.4565C3.09467 13.1757 2.84359 12.9362 2.64697 12.6753C2.45235 12.417 2.38919 12.2342 2.38916 12.1011C2.38917 11.9679 2.45232 11.7852 2.64697 11.5269C2.84356 11.266 3.0947 11.0264 3.37549 10.7456L10.9185 3.20361C11.3831 2.73901 11.8303 2.48682 12.2739 2.48682ZM3.67041 12.1011L7.56006 15.9897L11.3306 12.2183L12.1558 13.0435L8.38428 16.8149L11.3306 19.7612L15.1021 15.9897L15.9272 16.8149L12.1558 20.5864L15.1021 23.5327L18.8735 19.7612L19.6978 20.5854L15.9272 24.3579L19.8159 28.2466L28.4194 19.6431L12.2739 3.49756L3.67041 12.1011Z" fill="black"/>
</svg>
