<svg width="32" height="32" viewBox="0 0 32 32" fill="none" xmlns="http://www.w3.org/2000/svg">
<path d="M11.6109 27.2257V26.4475H13.3541C13.8729 26.4475 14.2672 26.3956 14.537 26.2918C14.8067 26.1673 14.9935 25.9183 15.0973 25.5447C15.2218 25.1712 15.284 24.6109 15.284 23.8638V5.93385H10.9883C10.428 5.93385 10.013 6.01686 9.74319 6.18288C9.47341 6.32815 9.28664 6.55642 9.18288 6.8677C9.07912 7.17899 9.00649 7.61479 8.96498 8.1751L8.84047 9.85603H8L8.18677 5H23.8132L24 9.85603H23.1595L23.035 8.1751C23.0143 7.61479 22.9416 7.17899 22.8171 6.8677C22.7134 6.55642 22.5266 6.32815 22.2568 6.18288C21.987 6.01686 21.572 5.93385 21.0117 5.93385H16.6226V23.8327C16.6226 24.5798 16.6744 25.1505 16.7782 25.5447C16.9027 25.9183 17.0999 26.1673 17.3696 26.2918C17.6602 26.3956 18.0545 26.4475 18.5525 26.4475H20.2646V27.2257H11.6109Z" fill="black"/>
</svg>
