<svg width="24" height="24" viewBox="0 0 24 24" fill="none" xmlns="http://www.w3.org/2000/svg">
<path d="M8.45911 4.25515C7.91907 4.25515 7.44749 4.05739 7.04436 3.66187C6.64123 3.25874 6.43967 2.79476 6.43967 2.26994C6.43967 1.69947 6.64123 1.22409 7.04436 0.843779C7.44749 0.46347 7.91907 0.273315 8.45911 0.273315C9.02957 0.273315 9.50876 0.46347 9.89668 0.843779C10.277 1.22409 10.4671 1.69947 10.4671 2.26994C10.4671 2.79476 10.277 3.25874 9.89668 3.66187C9.50876 4.05739 9.02957 4.25515 8.45911 4.25515ZM15.1678 4.25515C14.6277 4.25515 14.1561 4.05739 13.753 3.66187C13.3499 3.25874 13.1483 2.79476 13.1483 2.26994C13.1483 1.69947 13.3499 1.22409 13.753 0.843779C14.1561 0.46347 14.6277 0.273315 15.1678 0.273315C15.7382 0.273315 16.2174 0.46347 16.6053 0.843779C16.9856 1.22409 17.1758 1.69947 17.1758 2.26994C17.1758 2.79476 16.9856 3.25874 16.6053 3.66187C16.2174 4.05739 15.7382 4.25515 15.1678 4.25515Z" fill="#494949"/>
<path d="M9.30121 7.75837C9.53681 7.75837 9.72958 7.84404 9.87952 8.0154C10.0509 8.16533 10.1365 8.3581 10.1365 8.59371C10.1365 8.8079 10.0509 9.00067 9.87952 9.17202C9.72958 9.34337 9.53681 9.42905 9.30121 9.42905C9.08702 9.42905 8.89424 9.34337 8.72289 9.17202C8.55154 9.00067 8.46586 8.8079 8.46586 8.59371C8.46586 8.3581 8.55154 8.16533 8.72289 8.0154C8.89424 7.84404 9.08702 7.75837 9.30121 7.75837ZM14.6988 7.75837C14.9344 7.75837 15.1272 7.84404 15.2771 8.0154C15.4485 8.16533 15.5341 8.3581 15.5341 8.59371C15.5341 8.8079 15.4485 9.00067 15.2771 9.17202C15.1272 9.34337 14.9344 9.42905 14.6988 9.42905C14.4846 9.42905 14.2918 9.34337 14.1205 9.17202C13.9491 9.00067 13.8635 8.8079 13.8635 8.59371C13.8635 8.3581 13.9491 8.16533 14.1205 8.0154C14.2918 7.84404 14.4846 7.75837 14.6988 7.75837ZM9.30121 20.931C9.53681 20.931 9.72958 21.0167 9.87952 21.1881C10.0509 21.338 10.1365 21.5308 10.1365 21.7664C10.1365 21.9806 10.0509 22.1734 9.87952 22.3447C9.72958 22.5161 9.53681 22.6017 9.30121 22.6017C9.08702 22.6017 8.89424 22.5161 8.72289 22.3447C8.55154 22.1734 8.46586 21.9806 8.46586 21.7664C8.46586 21.5308 8.55154 21.338 8.72289 21.1881C8.89424 21.0167 9.08702 20.931 9.30121 20.931ZM14.6988 20.931C14.9344 20.931 15.1272 21.0167 15.2771 21.1881C15.4485 21.338 15.5341 21.5308 15.5341 21.7664C15.5341 21.9806 15.4485 22.1734 15.2771 22.3447C15.1272 22.5161 14.9344 22.6017 14.6988 22.6017C14.4846 22.6017 14.2918 22.5161 14.1205 22.3447C13.9491 22.1734 13.8635 21.9806 13.8635 21.7664C13.8635 21.5308 13.9491 21.338 14.1205 21.1881C14.2918 21.0167 14.4846 20.931 14.6988 20.931ZM12 7.18005C12.2356 7.18005 12.4284 7.26573 12.5783 7.43708C12.7497 7.58701 12.8353 7.77979 12.8353 8.0154C12.8353 8.22959 12.7497 8.42236 12.5783 8.59371C12.4284 8.76506 12.2356 8.85073 12 8.85073C11.7858 8.85073 11.593 8.76506 11.4217 8.59371C11.2503 8.42236 11.1647 8.22959 11.1647 8.0154C11.1647 7.77979 11.2503 7.58701 11.4217 7.43708C11.593 7.26573 11.7858 7.18005 12 7.18005ZM12 21.5094C12.2356 21.5094 12.4284 21.595 12.5783 21.7664C12.7497 21.9163 12.8353 22.1091 12.8353 22.3447C12.8353 22.5589 12.7497 22.7517 12.5783 22.923C12.4284 23.0944 12.2356 23.18 12 23.18C11.7858 23.18 11.593 23.0944 11.4217 22.923C11.2503 22.7517 11.1647 22.5589 11.1647 22.3447C11.1647 22.1091 11.2503 21.9163 11.4217 21.7664C11.593 21.595 11.7858 21.5094 12 21.5094ZM4 15.18C4 14.9444 4.08568 14.7517 4.25703 14.6017C4.42838 14.4304 4.62115 14.3447 4.83534 14.3447C5.07095 14.3447 5.26372 14.4304 5.41365 14.6017C5.58501 14.7517 5.67068 14.9444 5.67068 15.18C5.67068 15.3942 5.58501 15.587 5.41365 15.7584C5.26372 15.9297 5.07095 16.0154 4.83534 16.0154C4.62115 16.0154 4.42838 15.9297 4.25703 15.7584C4.08568 15.587 4 15.3942 4 15.18ZM18.3293 15.18C18.3293 14.9444 18.415 14.7517 18.5863 14.6017C18.7577 14.4304 18.9505 14.3447 19.1647 14.3447C19.4003 14.3447 19.593 14.4304 19.743 14.6017C19.9143 14.7517 20 14.9444 20 15.18C20 15.3942 19.9143 15.587 19.743 15.7584C19.593 15.9297 19.4003 16.0154 19.1647 16.0154C18.9505 16.0154 18.7577 15.9297 18.5863 15.7584C18.415 15.587 18.3293 15.3942 18.3293 15.18ZM6.08835 20.2564C6.08835 20.0207 6.17403 19.828 6.34538 19.678C6.51673 19.5067 6.7095 19.421 6.92369 19.421C7.1593 19.421 7.35208 19.5067 7.50201 19.678C7.67336 19.828 7.75904 20.0207 7.75904 20.2564C7.75904 20.4705 7.67336 20.6633 7.50201 20.8347C7.35208 21.006 7.1593 21.0917 6.92369 21.0917C6.7095 21.0917 6.51673 21.006 6.34538 20.8347C6.17403 20.6633 6.08835 20.4705 6.08835 20.2564ZM6.08835 10.1037C6.08835 9.86814 6.17403 9.67537 6.34538 9.52543C6.51673 9.35408 6.7095 9.26841 6.92369 9.26841C7.1593 9.26841 7.35208 9.35408 7.50201 9.52543C7.67336 9.67537 7.75904 9.86814 7.75904 10.1037C7.75904 10.3179 7.67336 10.5107 7.50201 10.6821C7.35208 10.8534 7.1593 10.9391 6.92369 10.9391C6.7095 10.9391 6.51673 10.8534 6.34538 10.6821C6.17403 10.5107 6.08835 10.3179 6.08835 10.1037ZM16.241 20.2564C16.241 20.0207 16.3266 19.828 16.498 19.678C16.6693 19.5067 16.8621 19.421 17.0763 19.421C17.3119 19.421 17.5047 19.5067 17.6546 19.678C17.826 19.828 17.9116 20.0207 17.9116 20.2564C17.9116 20.4705 17.826 20.6633 17.6546 20.8347C17.5047 21.006 17.3119 21.0917 17.0763 21.0917C16.8621 21.0917 16.6693 21.006 16.498 20.8347C16.3266 20.6633 16.241 20.4705 16.241 20.2564ZM16.241 10.1037C16.241 9.86814 16.3266 9.67537 16.498 9.52543C16.6693 9.35408 16.8621 9.26841 17.0763 9.26841C17.3119 9.26841 17.5047 9.35408 17.6546 9.52543C17.826 9.67537 17.9116 9.86814 17.9116 10.1037C17.9116 10.3179 17.826 10.5107 17.6546 10.6821C17.5047 10.8534 17.3119 10.9391 17.0763 10.9391C16.8621 10.9391 16.6693 10.8534 16.498 10.6821C16.3266 10.5107 16.241 10.3179 16.241 10.1037ZM4.57831 17.8788C4.57831 17.6432 4.66399 17.4505 4.83534 17.3005C5.00669 17.1292 5.19946 17.0435 5.41365 17.0435C5.64926 17.0435 5.84203 17.1292 5.99197 17.3005C6.16332 17.4505 6.249 17.6432 6.249 17.8788C6.249 18.093 6.16332 18.2858 5.99197 18.4572C5.84203 18.6285 5.64926 18.7142 5.41365 18.7142C5.19946 18.7142 5.00669 18.6285 4.83534 18.4572C4.66399 18.2858 4.57831 18.093 4.57831 17.8788ZM4.57831 12.4813C4.57831 12.2456 4.66399 12.0529 4.83534 11.9029C5.00669 11.7316 5.19946 11.6459 5.41365 11.6459C5.64926 11.6459 5.84203 11.7316 5.99197 11.9029C6.16332 12.0529 6.249 12.2456 6.249 12.4813C6.249 12.6954 6.16332 12.8882 5.99197 13.0596C5.84203 13.2309 5.64926 13.3166 5.41365 13.3166C5.19946 13.3166 5.00669 13.2309 4.83534 13.0596C4.66399 12.8882 4.57831 12.6954 4.57831 12.4813ZM17.751 17.8788C17.751 17.6432 17.8367 17.4505 18.008 17.3005C18.1794 17.1292 18.3722 17.0435 18.5863 17.0435C18.822 17.0435 19.0147 17.1292 19.1647 17.3005C19.336 17.4505 19.4217 17.6432 19.4217 17.8788C19.4217 18.093 19.336 18.2858 19.1647 18.4572C19.0147 18.6285 18.822 18.7142 18.5863 18.7142C18.3722 18.7142 18.1794 18.6285 18.008 18.4572C17.8367 18.2858 17.751 18.093 17.751 17.8788ZM17.751 12.4813C17.751 12.2456 17.8367 12.0529 18.008 11.9029C18.1794 11.7316 18.3722 11.6459 18.5863 11.6459C18.822 11.6459 19.0147 11.7316 19.1647 11.9029C19.336 12.0529 19.4217 12.2456 19.4217 12.4813C19.4217 12.6954 19.336 12.8882 19.1647 13.0596C19.0147 13.2309 18.822 13.3166 18.5863 13.3166C18.3722 13.3166 18.1794 13.2309 18.008 13.0596C17.8367 12.8882 17.751 12.6954 17.751 12.4813Z" fill="#494949"/>
</svg>
