<svg width="24" height="24" viewBox="0 0 24 24" fill="none" xmlns="http://www.w3.org/2000/svg">
<path d="M10.6411 21.5514L9.26523 21.0011L10.0678 18.8455C6.76571 18.1117 5 15.9562 5 12.4477C5 8.06782 7.7059 5.77469 12.8654 5.77469H14.9981L16.0529 3L17.4058 3.57328L16.5803 5.77469H18.69V7.40281H15.9612L14.3789 11.6222H18.69V13.2503H13.7598L12.1775 17.4926C12.3151 17.4926 12.4527 17.4926 12.5903 17.4926H18.69V19.1207H12.8654C12.4068 19.1207 11.9941 19.0978 11.5813 19.0749L10.6411 21.5514ZM12.5903 7.40281C9.03591 7.40281 7.01796 8.84749 6.69692 11.6222H12.7966L14.3789 7.40281H12.5903ZM6.69692 13.2503C6.94916 15.4746 8.30211 16.8505 10.6411 17.3091L12.1775 13.2503H6.69692Z" fill="#494949"/>
</svg>
