<svg width="24" height="24" viewBox="0 0 24 24" fill="none" xmlns="http://www.w3.org/2000/svg">
<path d="M9.55157 11.5789C10.9507 11.5263 12.0359 11.2368 12.8072 10.7105C13.5964 10.1667 13.991 9.31579 13.991 8.1579V7.65789C13.991 6.64035 13.704 5.86842 13.13 5.34211C12.5561 4.79825 11.8117 4.52632 10.8969 4.52632C10.1256 4.52632 9.50673 4.64035 9.04036 4.86842V5C9.32735 5.12281 9.56054 5.33333 9.73991 5.63158C9.93722 5.92982 10.0359 6.25439 10.0359 6.60526C10.0359 7.16667 9.8565 7.64035 9.49776 8.02632C9.15695 8.39474 8.67265 8.57895 8.04484 8.57895C7.41704 8.57895 6.9148 8.38597 6.53812 8C6.17937 7.61404 6 7.10526 6 6.47368C6 6 6.13453 5.55263 6.40359 5.13158C6.67265 4.71053 7.04933 4.34211 7.53363 4.02632C8.03587 3.71053 8.6278 3.46491 9.30942 3.28947C10.009 3.09649 10.7803 3 11.6233 3C13.7578 3 15.3543 3.44737 16.4126 4.3421C17.4709 5.2193 18 6.42105 18 7.94737C18 8.78947 17.8296 9.53509 17.4888 10.1842C17.1659 10.8158 16.7085 11.3596 16.1166 11.8158C15.5426 12.2719 14.852 12.6316 14.0448 12.8947C13.2556 13.1579 12.3946 13.3333 11.4619 13.4211V15.7895H9.55157V11.5789ZM10.5202 22C9.82063 22 9.27354 21.7982 8.87892 21.3947C8.50224 20.9912 8.3139 20.5 8.3139 19.9211V19.7895C8.3139 19.2105 8.50224 18.7193 8.87892 18.3158C9.27354 17.9123 9.82063 17.7105 10.5202 17.7105C11.2197 17.7105 11.7578 17.9123 12.1345 18.3158C12.5291 18.7193 12.7265 19.2105 12.7265 19.7895V19.9211C12.7265 20.5 12.5291 20.9912 12.1345 21.3947C11.7578 21.7982 11.2197 22 10.5202 22Z" fill="#494949"/>
</svg>
