<svg width="24" height="24" viewBox="0 0 24 24" fill="none" xmlns="http://www.w3.org/2000/svg">
<path d="M7 22V6.71642C7 5.61526 7.19489 4.71973 7.58468 4.02985C7.9879 3.3267 8.55242 2.81592 9.27823 2.49751C10.004 2.16584 10.8374 2 11.7782 2C12.7191 2 13.5255 2.14594 14.1976 2.43781C14.8696 2.71642 15.3804 3.14096 15.7298 3.71144C16.0793 4.26866 16.254 4.97181 16.254 5.8209C16.254 6.45771 16.1331 7.00829 15.8911 7.47264C15.6626 7.92371 15.3401 8.29519 14.9234 8.58706C14.5202 8.86567 14.0497 9.05804 13.5121 9.16418V9.22388C14.211 9.31675 14.8159 9.51576 15.3266 9.8209C15.8508 10.126 16.2608 10.5439 16.5565 11.0746C16.8522 11.6053 17 12.2753 17 13.0846C17 14 16.7849 14.7828 16.3548 15.4328C15.9382 16.0829 15.3737 16.5804 14.6613 16.9254C13.9624 17.257 13.1828 17.4229 12.3226 17.4229C11.8656 17.4229 11.4825 17.3964 11.1734 17.3433C10.8642 17.3035 10.582 17.2371 10.3266 17.1443C10.0712 17.0381 9.80914 16.9187 9.54032 16.7861V22H7ZM11.8992 15.4129C12.6788 15.4129 13.2903 15.194 13.7339 14.7562C14.1774 14.3051 14.3992 13.6816 14.3992 12.8856C14.3992 12.2753 14.2782 11.7778 14.0363 11.393C13.7944 11.0083 13.4785 10.7297 13.0887 10.5572C12.7124 10.3715 12.3159 10.2786 11.8992 10.2786H10.7097V8.36816H11.7177C12.1344 8.36816 12.4906 8.27529 12.7863 8.08955C13.082 7.89055 13.3105 7.61857 13.4718 7.27363C13.6331 6.91542 13.7137 6.51078 13.7137 6.0597C13.7137 5.36982 13.5188 4.8524 13.129 4.50746C12.7392 4.16252 12.2755 3.99005 11.7379 3.99005C11.3347 3.99005 10.9583 4.07629 10.6089 4.24876C10.2728 4.40796 10.0108 4.68657 9.82258 5.08458C9.63441 5.48259 9.54032 6.0398 9.54032 6.75622V14.6766C9.91667 14.9022 10.2863 15.0813 10.6492 15.2139C11.0121 15.3466 11.4288 15.4129 11.8992 15.4129Z" fill="#494949"/>
</svg>
