<svg width="13" height="13" viewBox="0 0 13 13" fill="none" xmlns="http://www.w3.org/2000/svg">
<path d="M4.6875 10.9375H2.60417C2.31771 10.9375 2.07248 10.8355 1.86849 10.6315C1.6645 10.4275 1.5625 10.1823 1.5625 9.89581V2.60415C1.5625 2.31769 1.6645 2.07246 1.86849 1.86847C2.07248 1.66448 2.31771 1.56248 2.60417 1.56248H4.6875V2.60415H2.60417V9.89581H4.6875V10.9375ZM5.72917 11.9791V0.520813H6.77083V11.9791H5.72917ZM7.8125 10.9375V9.89581H8.85417V10.9375H7.8125ZM7.8125 2.60415V1.56248H8.85417V2.60415H7.8125ZM9.89583 10.9375V9.89581H10.9375C10.9375 10.1823 10.8355 10.4275 10.6315 10.6315C10.4275 10.8355 10.1823 10.9375 9.89583 10.9375ZM9.89583 8.85415V7.81248H10.9375V8.85415H9.89583ZM9.89583 6.77081V5.72915H10.9375V6.77081H9.89583ZM9.89583 4.68748V3.64581H10.9375V4.68748H9.89583ZM9.89583 2.60415V1.56248C10.1823 1.56248 10.4275 1.66448 10.6315 1.86847C10.8355 2.07246 10.9375 2.31769 10.9375 2.60415H9.89583Z" fill="#585858"/>
</svg>
