<svg width="12" height="12" viewBox="0 0 12 12" fill="none" xmlns="http://www.w3.org/2000/svg">
<path d="M5.5 6.8V10.5H1.8C1.63431 10.5 1.5 10.3657 1.5 10.2V6.5H5.2C5.3657 6.5 5.5 6.6343 5.5 6.8Z" stroke="currentColor" stroke-width="0.75" stroke-linecap="round" stroke-linejoin="round"/>
<path d="M5.5 10.5H7" stroke="currentColor" stroke-width="0.75" stroke-linecap="round" stroke-linejoin="round"/>
<path d="M1.5 6.5V5" stroke="currentColor" stroke-width="0.75" stroke-linecap="round" stroke-linejoin="round"/>
<path d="M3 1.5H1.8C1.63431 1.5 1.5 1.63431 1.5 1.8V3" stroke="currentColor" stroke-width="0.75" stroke-linecap="round" stroke-linejoin="round"/>
<path d="M7 1.5H5" stroke="currentColor" stroke-width="0.75" stroke-linecap="round" stroke-linejoin="round"/>
<path d="M10.5 5V7" stroke="currentColor" stroke-width="0.75" stroke-linecap="round" stroke-linejoin="round"/>
<path d="M9 1.5H10.2C10.3657 1.5 10.5 1.63431 10.5 1.8V3" stroke="currentColor" stroke-width="0.75" stroke-linecap="round" stroke-linejoin="round"/>
<path d="M9 10.5H10.2C10.3657 10.5 10.5 10.3657 10.5 10.2V9" stroke="currentColor" stroke-width="0.75" stroke-linecap="round" stroke-linejoin="round"/>
<path d="M5.5 5H7V6.5" stroke="currentColor" stroke-width="0.75" stroke-linecap="round" stroke-linejoin="round"/>
</svg>
