<svg width="24" height="24" viewBox="0 0 24 24" fill="none" xmlns="http://www.w3.org/2000/svg">
<path d="M18.4948 9.98326V15.1791C18.4948 15.5665 18.5745 15.8514 18.7341 16.0337C18.8936 16.216 19.1215 16.3071 19.4177 16.3071C19.6456 16.3071 19.8507 16.2957 20.033 16.2729C20.2153 16.2274 20.4204 16.159 20.6483 16.0678V19.0076C20.2609 19.2811 19.7823 19.5089 19.2126 19.6913C18.6429 19.8964 17.9706 19.9989 17.1958 19.9989C16.2615 19.9989 15.4411 19.771 14.7346 19.3152C14.051 18.8367 13.5838 18.1644 13.3331 17.2984C12.9002 18.1872 12.2507 18.8595 11.3847 19.3152C10.5187 19.771 9.48185 19.9989 8.27405 19.9989C6.79278 19.9989 5.59637 19.6343 4.68482 18.905C3.79606 18.1758 3.35168 17.1617 3.35168 15.8627C3.35168 14.4043 3.84164 13.3218 4.82156 12.6154C5.82426 11.8861 7.14601 11.3734 8.78679 11.0771L13.0597 10.3593V10.12C13.0597 9.48191 12.9002 8.99195 12.5811 8.65012C12.2849 8.2855 11.8063 8.10319 11.1454 8.10319C10.5301 8.10319 10.0516 8.2855 9.70974 8.65012C9.3907 8.99195 9.1742 9.44773 9.06026 10.0174L3.9328 9.67561C4.16068 8.01204 4.90132 6.65611 6.1547 5.60783C7.43087 4.53676 9.20839 4.00122 11.4873 4.00122C13.4927 4.00122 15.1562 4.46839 16.478 5.40273C17.8225 6.33706 18.4948 7.86391 18.4948 9.98326ZM13.0597 13.299V13.0597L10.8036 13.4699C10.1427 13.6067 9.61858 13.8004 9.23117 14.051C8.86655 14.2789 8.68424 14.6436 8.68424 15.1449C8.68424 15.5323 8.82098 15.8514 9.09444 16.102C9.39069 16.3299 9.76671 16.4439 10.2225 16.4439C10.9973 16.4439 11.6582 16.1704 12.2051 15.6235C12.7748 15.0537 13.0597 14.2789 13.0597 13.299Z" fill="#585858"/>
</svg>
