<svg width="24" height="24" viewBox="0 0 24 24" fill="none" xmlns="http://www.w3.org/2000/svg">
<path d="M3.25 23.25C2.5625 23.25 1.97396 23.0052 1.48438 22.5156C0.994792 22.026 0.75 21.4375 0.75 20.75V15.75H3.25V20.75H8.25V23.25H3.25ZM15.75 23.25V20.75H20.75V15.75H23.25V20.75C23.25 21.4375 23.0052 22.026 22.5156 22.5156C22.026 23.0052 21.4375 23.25 20.75 23.25H15.75ZM0.75 8.25V3.25C0.75 2.5625 0.994792 1.97396 1.48438 1.48438C1.97396 0.994792 2.5625 0.75 3.25 0.75H8.25V3.25H3.25V8.25H0.75ZM20.75 8.25V3.25H15.75V0.75H20.75C21.4375 0.75 22.026 0.994792 22.5156 1.48438C23.0052 1.97396 23.25 2.5625 23.25 3.25V8.25H20.75Z" fill="#585858"/>
<path d="M17.0754 9.99224V13.9235C17.0754 14.2166 17.1357 14.4321 17.2564 14.57C17.3771 14.708 17.5495 14.777 17.7737 14.777C17.9461 14.777 18.1013 14.7683 18.2392 14.7511C18.3772 14.7166 18.5323 14.6649 18.7048 14.5959V16.8202C18.4117 17.0271 18.0496 17.1995 17.6185 17.3374C17.1875 17.4926 16.6788 17.5702 16.0926 17.5702C15.3856 17.5702 14.7649 17.3978 14.2304 17.0529C13.7132 16.6908 13.3597 16.1822 13.17 15.527C12.8424 16.1994 12.351 16.7081 11.6958 17.0529C11.0406 17.3978 10.2561 17.5702 9.34225 17.5702C8.22151 17.5702 7.31629 17.2943 6.6266 16.7426C5.95415 16.1908 5.61793 15.4235 5.61793 14.4407C5.61793 13.3372 5.98864 12.5182 6.73006 11.9837C7.48871 11.432 8.48876 11.044 9.7302 10.8199L12.9631 10.2767V10.0957C12.9631 9.61291 12.8424 9.2422 12.601 8.98357C12.3769 8.70769 12.0148 8.56975 11.5148 8.56975C11.0492 8.56975 10.6871 8.70769 10.4285 8.98357C10.1871 9.2422 10.0233 9.58705 9.93711 10.0181L6.05761 9.75947C6.23003 8.50079 6.7904 7.47487 7.73872 6.68173C8.70429 5.87135 10.0492 5.46616 11.7734 5.46616C13.2907 5.46616 14.5494 5.81962 15.5494 6.52655C16.5667 7.23348 17.0754 8.38871 17.0754 9.99224ZM12.9631 12.501V12.3199L11.2561 12.6303C10.7561 12.7337 10.3595 12.8803 10.0664 13.07C9.79055 13.2424 9.65261 13.5183 9.65261 13.8976C9.65261 14.1907 9.75606 14.4321 9.96297 14.6218C10.1871 14.7942 10.4716 14.8804 10.8165 14.8804C11.4027 14.8804 11.9027 14.6735 12.3165 14.2597C12.7476 13.8286 12.9631 13.2424 12.9631 12.501Z" fill="#585858"/>
</svg>
