<svg width="24" height="24" viewBox="0 0 24 24" fill="none" xmlns="http://www.w3.org/2000/svg">
<path fill-rule="evenodd" clip-rule="evenodd" d="M8.85001 18.8L9.25001 22H14.75L15.15 18.8C15.35 18.7167 15.55 18.6167 15.75 18.5C15.95 18.3833 16.1417 18.2583 16.325 18.125L19.275 19.375L22.025 14.625L19.45 12.675C19.4833 12.5583 19.5 12.4458 19.5 12.3375V11.6625C19.5 11.5542 19.4917 11.4417 19.475 11.325L22.05 9.375L19.3 4.625L16.325 5.875C16.1417 5.74167 15.9542 5.61667 15.7625 5.5C15.5708 5.38333 15.3667 5.28333 15.15 5.2L14.75 2H9.25001L8.85001 5.2C8.65001 5.28333 8.45001 5.38333 8.25001 5.5C8.05001 5.61667 7.85835 5.74167 7.67501 5.875L4.70001 4.625L1.95001 9.375L4.52501 11.325C4.50835 11.4417 4.50001 11.5542 4.50001 11.6625V12.3375C4.50001 12.4458 4.50835 12.5583 4.52501 12.675L1.95001 14.625L4.70001 19.375L7.67501 18.125C7.85835 18.2583 8.04585 18.3833 8.23751 18.5C8.42918 18.6167 8.63335 18.7167 8.85001 18.8ZM12.975 20H11L10.675 17.35C10.1583 17.2167 9.67918 17.0208 9.23751 16.7625C8.79585 16.5042 8.39168 16.1833 8.02501 15.8L5.55001 16.85L4.57501 15.15L6.72501 13.525C6.64168 13.275 6.58335 13.025 6.55001 12.775C6.51668 12.525 6.50001 12.2667 6.50001 12C6.50001 11.7167 6.51668 11.45 6.55001 11.2C6.58335 10.95 6.64168 10.7 6.72501 10.45L4.57501 8.85L5.55001 7.15L8.02501 8.175C8.39168 7.80833 8.79585 7.49583 9.23751 7.2375C9.67918 6.97917 10.1583 6.78333 10.675 6.65L11.025 4H13L13.325 6.65C13.8417 6.78333 14.3208 6.97917 14.7625 7.2375C15.2042 7.49583 15.6083 7.81667 15.975 8.2L18.45 7.15L19.425 8.85L17.275 10.475C17.3583 10.7083 17.4167 10.9542 17.45 11.2125C17.4833 11.4708 17.5 11.7333 17.5 12C17.5 12.2667 17.4833 12.5292 17.45 12.7875C17.4167 13.0458 17.3583 13.2917 17.275 13.525L19.425 15.15L18.45 16.85L15.975 15.825C15.6083 16.1917 15.2042 16.5042 14.7625 16.7625C14.3208 17.0208 13.8417 17.2167 13.325 17.35L12.975 20ZM14.525 14.475C13.8417 15.1583 13.0167 15.5 12.05 15.5C11.0667 15.5 10.2375 15.1583 9.56251 14.475C8.88751 13.7917 8.55001 12.9667 8.55001 12C8.55001 11.0333 8.88751 10.2083 9.56251 9.525C10.2375 8.84167 11.0667 8.5 12.05 8.5C13.0167 8.5 13.8417 8.84167 14.525 9.525C15.2083 10.2083 15.55 11.0333 15.55 12C15.55 12.9667 15.2083 13.7917 14.525 14.475ZM13.149 13.1031C12.8456 13.4066 12.4793 13.5583 12.05 13.5583C11.6134 13.5583 11.2452 13.4066 10.9455 13.1031C10.6457 12.7997 10.4959 12.4334 10.4959 12.0041C10.4959 11.5749 10.6457 11.2086 10.9455 10.9051C11.2452 10.6017 11.6134 10.45 12.05 10.45C12.4793 10.45 12.8456 10.6017 13.149 10.9051C13.4524 11.2086 13.6042 11.5749 13.6042 12.0041C13.6042 12.4334 13.4524 12.7997 13.149 13.1031Z" fill="#585858"/>
</svg>
