<svg width="24" height="24" viewBox="0 0 24 24" fill="none" xmlns="http://www.w3.org/2000/svg">
<path d="M17.1917 8.94049V11.5384C17.1917 11.7321 17.2315 11.8745 17.3113 11.9657C17.3911 12.0568 17.505 12.1024 17.6531 12.1024C17.7671 12.1024 17.8696 12.0967 17.9608 12.0853C18.0519 12.0625 18.1545 12.0284 18.2684 11.9828V13.4527C18.0747 13.5894 17.8354 13.7033 17.5506 13.7945C17.2657 13.897 16.9296 13.9483 16.5422 13.9483C16.075 13.9483 15.6648 13.8344 15.3116 13.6065C14.9698 13.3672 14.7362 13.0311 14.6108 12.5981C14.3944 13.0425 14.0696 13.3786 13.6366 13.6065C13.2036 13.8344 12.6852 13.9483 12.0813 13.9483C11.3407 13.9483 10.7425 13.766 10.2867 13.4014C9.84231 13.0368 9.62012 12.5297 9.62012 11.8802C9.62012 11.151 9.8651 10.6098 10.3551 10.2565C10.8564 9.89192 11.5173 9.63555 12.3377 9.48742L14.4741 9.1285V9.00886C14.4741 8.68981 14.3944 8.44484 14.2348 8.27392C14.0867 8.09161 13.8474 8.00045 13.517 8.00045C13.2093 8.00045 12.9701 8.09161 12.7991 8.27392C12.6396 8.44484 12.5314 8.67272 12.4744 8.95758L9.91067 8.78667C10.0246 7.95488 10.3949 7.27691 11.0216 6.75277C11.6597 6.21724 12.5485 5.94947 13.6879 5.94947C14.6906 5.94947 15.5224 6.18305 16.1833 6.65022C16.8555 7.11739 17.1917 7.88082 17.1917 8.94049ZM14.4741 10.5984V10.4787L13.3461 10.6838C13.0156 10.7522 12.7536 10.849 12.5599 10.9744C12.3776 11.0883 12.2864 11.2706 12.2864 11.5213C12.2864 11.715 12.3548 11.8745 12.4915 11.9999C12.6396 12.1138 12.8276 12.1708 13.0555 12.1708C13.4429 12.1708 13.7734 12.0341 14.0468 11.7606C14.3317 11.4757 14.4741 11.0883 14.4741 10.5984Z" fill="#585858"/>
<path d="M8 18C7.45 18 6.97917 17.8042 6.5875 17.4125C6.19583 17.0208 6 16.55 6 16V4C6 3.45 6.19583 2.97917 6.5875 2.5875C6.97917 2.19583 7.45 2 8 2H20C20.55 2 21.0208 2.19583 21.4125 2.5875C21.8042 2.97917 22 3.45 22 4V16C22 16.55 21.8042 17.0208 21.4125 17.4125C21.0208 17.8042 20.55 18 20 18H8ZM8 16H20V4H8V16ZM4 22C3.45 22 2.97917 21.8042 2.5875 21.4125C2.19583 21.0208 2 20.55 2 20V6H4V20H18V22H4Z" fill="#585858"/>
</svg>
