<svg width="13" height="13" viewBox="0 0 13 13" fill="none" xmlns="http://www.w3.org/2000/svg">
<path d="M10.9375 7.8125V9.89583C10.9375 10.1823 10.8355 10.4275 10.6315 10.6315C10.4275 10.8355 10.1823 10.9375 9.89581 10.9375H2.60415C2.31769 10.9375 2.07246 10.8355 1.86847 10.6315C1.66448 10.4275 1.56248 10.1823 1.56248 9.89583L1.56248 7.8125H2.60415V9.89583H9.89581V7.8125H10.9375ZM11.9791 6.77083H0.520813L0.520813 5.72917H11.9791V6.77083ZM10.9375 4.6875H9.89581V3.64583H10.9375V4.6875ZM2.60415 4.6875H1.56248V3.64583H2.60415V4.6875ZM10.9375 2.60417H9.89581V1.5625C10.1823 1.5625 10.4275 1.6645 10.6315 1.86849C10.8355 2.07248 10.9375 2.31771 10.9375 2.60417ZM8.85415 2.60417H7.81248V1.5625H8.85415V2.60417ZM6.77081 2.60417H5.72915V1.5625H6.77081V2.60417ZM4.68748 2.60417H3.64581V1.5625H4.68748V2.60417ZM2.60415 2.60417H1.56248C1.56248 2.31771 1.66448 2.07248 1.86847 1.86849C2.07246 1.6645 2.31769 1.5625 2.60415 1.5625V2.60417Z" fill="currentColor"/>
</svg>
