<svg width="24" height="24" viewBox="0 0 24 24" fill="none" xmlns="http://www.w3.org/2000/svg">
<path d="M17 15.7499C17 16.4402 16.4403 16.9999 15.75 16.9999H8.5C7.94772 16.9999 7.5 16.5522 7.5 15.9999V8.24988C7.5 7.55952 8.05964 6.99988 8.75 6.99988H16C16.5523 6.99988 17 7.44759 17 7.99988V15.7499Z" fill="#585858" fill-opacity="0.5"/>
<path fill-rule="evenodd" clip-rule="evenodd" d="M16.6533 1.00769C17.4097 1.08449 17.9999 1.72321 17.9999 2.49988V6.99988H22.4999L22.6533 7.00769C23.4096 7.08448 23.9999 7.72327 23.9999 8.49988V21.4999C23.9999 22.2765 23.4097 22.9153 22.6533 22.9921L22.4999 22.9999H8.49994C7.67154 22.9998 6.99994 22.3283 6.99994 21.4999V17.9999H2.49994C1.72328 17.9999 1.08455 17.4096 1.00775 16.6532L0.999939 16.4999V2.49988C0.999939 1.67145 1.67151 0.999878 2.49994 0.999878H16.4999L16.6533 1.00769ZM17.9999 16.4999L17.9921 16.6532C17.9204 17.3592 17.3592 17.9204 16.6533 17.9921L16.4999 17.9999H8.99994V20.9999H21.9999V8.99988H17.9999V16.4999ZM8.99994 15.9999H15.9999V8.99988H8.99994V15.9999ZM2.99994 15.9999H6.99994V8.49988C7 7.67153 7.67158 6.99991 8.49994 6.99988H15.9999V2.99988H2.99994V15.9999Z" fill="#585858"/>
</svg>
