<svg width="32" height="55" viewBox="0 0 32 55" fill="none" xmlns="http://www.w3.org/2000/svg">
<path d="M13.0251 54.1223V51.0949H16.024V54.1223H13.0251ZM16.024 51.0949V48.096H19.0229V45.0971H22.0503V21.0491H16.024V18.0217H19.0229V15.0229H22.0503V12.024H25.0491V15.0229H28.048V45.0971H25.0491V48.096H22.0503V51.0949H16.024ZM6.99886 48.096V42.0697H4V39.0709H6.99886V5.99772H13.0251V21.0491H16.024V24.048H13.0251V39.0709H16.024V42.0697H13.0251V45.0971H10.0263V48.096H6.99886ZM4 5.99772V2.99886H6.99886V5.99772H4ZM13.0251 5.99772V2.99886H16.024V5.99772H13.0251ZM16.024 2.99886V0H19.0229V2.99886H16.024Z" fill="currentColor"/>
</svg>
