<svg width="13" height="13" viewBox="0 0 13 13" fill="none" xmlns="http://www.w3.org/2000/svg">
<path d="M5.72919 11.4583C5.07815 11.4583 4.46834 11.3346 3.89976 11.0872C3.33118 10.8398 2.83639 10.5056 2.41538 10.0846C1.99438 9.66361 1.66018 9.16882 1.41278 8.60024C1.16538 8.03166 1.04169 7.42185 1.04169 6.77081C1.04169 5.46873 1.49742 4.36196 2.40887 3.4505C3.32033 2.53904 4.4271 2.08331 5.72919 2.08331H5.80731L5.00002 1.27602L5.72919 0.520813L7.81252 2.60415L5.72919 4.68748L5.00002 3.93227L5.80731 3.12498H5.72919C4.71356 3.12498 3.85202 3.47871 3.14455 4.18618C2.43709 4.89364 2.08335 5.75519 2.08335 6.77081C2.08335 7.78644 2.43709 8.64798 3.14455 9.35545C3.85202 10.0629 4.71356 10.4166 5.72919 10.4166C6.03301 10.4166 6.33249 10.3798 6.62762 10.306C6.92276 10.2322 7.20488 10.1215 7.47398 9.97394L8.22919 10.7291C7.85592 10.9722 7.45662 11.1545 7.03127 11.276C6.60592 11.3975 6.1719 11.4583 5.72919 11.4583ZM8.85419 9.89581L5.72919 6.77081L8.85419 3.64581L11.9792 6.77081L8.85419 9.89581ZM8.85419 8.41144L10.4948 6.77081L8.85419 5.13019L7.21356 6.77081L8.85419 8.41144Z" fill="currentColor"/>
</svg>
