<svg width="24" height="24" viewBox="0 0 24 24" fill="none" xmlns="http://www.w3.org/2000/svg">
<path d="M15.6279 1.00671C16.2582 1.0708 16.75 1.60272 16.75 2.24988V6.99988H14.75V2.99988H2.75V14.9999H7.25V16.9999H2L1.87207 16.993C1.2839 16.9332 0.816645 16.466 0.756836 15.8778L0.75 15.7499V2.24988C0.75 1.55952 1.30964 0.999878 2 0.999878H15.5L15.6279 1.00671Z" fill="#959595"/>
<path d="M8.50006 7.99988H22.0001C22.1381 7.99988 22.2501 8.11181 22.2501 8.24988V21.7499C22.2501 21.8879 22.1381 21.9999 22.0001 21.9999H8.50006C8.36199 21.9999 8.25006 21.8879 8.25006 21.7499V8.24988C8.25006 8.11181 8.36199 7.99988 8.50006 7.99988Z" fill="#585858" fill-opacity="0.5" stroke="#585858" stroke-width="2"/>
</svg>
