<svg width="24" height="24" viewBox="0 0 24 24" fill="none" xmlns="http://www.w3.org/2000/svg">
<path d="M2.24994 1.99988H15.7499C15.888 1.99988 15.9999 2.11181 15.9999 2.24988V7.99988H22.2499C22.388 7.99988 22.4999 8.11181 22.4999 8.24988V21.7499L22.4951 21.8007C22.4716 21.9144 22.3706 21.9999 22.2499 21.9999H8.74994C8.61186 21.9998 8.49995 21.8879 8.49994 21.7499V15.9999H2.24994C2.11187 15.9999 1.99994 15.8879 1.99994 15.7499V2.24988C1.99994 2.11181 2.11187 1.99988 2.24994 1.99988Z" fill="#585858" fill-opacity="0.5"/>
<path d="M2.24994 1.99988H15.7499C15.888 1.99988 15.9999 2.11181 15.9999 2.24988V7.99988H22.2499C22.388 7.99988 22.4999 8.11181 22.4999 8.24988V21.7499L22.4951 21.8007C22.4716 21.9144 22.3706 21.9999 22.2499 21.9999H8.74994C8.61186 21.9998 8.49995 21.8879 8.49994 21.7499V15.9999H2.24994C2.11187 15.9999 1.99994 15.8879 1.99994 15.7499V2.24988C1.99994 2.11181 2.11187 1.99988 2.24994 1.99988Z" stroke="#585858" stroke-width="2"/>
<path d="M2.24994 1.99988H15.7499C15.888 1.99988 15.9999 2.11181 15.9999 2.24988V7.99988H22.2499C22.388 7.99988 22.4999 8.11181 22.4999 8.24988V21.7499L22.4951 21.8007C22.4716 21.9144 22.3706 21.9999 22.2499 21.9999H8.74994C8.61186 21.9998 8.49995 21.8879 8.49994 21.7499V15.9999H2.24994C2.11187 15.9999 1.99994 15.8879 1.99994 15.7499V2.24988C1.99994 2.11181 2.11187 1.99988 2.24994 1.99988Z" stroke="black" stroke-opacity="0.2" stroke-width="2"/>
</svg>
