<svg width="24" height="4" viewBox="0 0 24 4" fill="none" xmlns="http://www.w3.org/2000/svg">
<path d="M1 3.20001L23 3.20006C23.5523 3.20006 24 2.75234 24 2.20006V1.00006C24 0.447776 23.5523 5.95683e-05 23 5.8451e-05L1 1.3944e-05C0.447715 1.28267e-05 0 0.447728 0 1.00001L0 2.20001C0 2.7523 0.447716 3.20001 1 3.20001Z" fill="#3A3A3A"/>
<path d="M1 3.20001L23 3.20006C23.5523 3.20006 24 2.75234 24 2.20006V1.00006C24 0.447776 23.5523 5.95683e-05 23 5.8451e-05L1 1.3944e-05C0.447715 1.28267e-05 0 0.447728 0 1.00001L0 2.20001C0 2.7523 0.447716 3.20001 1 3.20001Z" fill="#3A3A3A"/>
</svg>
