<svg width="24" height="24" viewBox="0 0 24 24" fill="none" xmlns="http://www.w3.org/2000/svg">
<path d="M1 13.6L23 13.5999C23.5523 13.5999 24 13.1522 24 12.5999V11.3999C24 10.8476 23.5523 10.3999 23 10.3999L1 10.4C0.447715 10.4 0 10.8477 0 11.4V12.6C0 13.1523 0.447716 13.6 1 13.6Z" fill="#3A3A3A"/>
<path d="M1 13.6L23 13.5999C23.5523 13.5999 24 13.1522 24 12.5999V11.3999C24 10.8476 23.5523 10.3999 23 10.3999L1 10.4C0.447715 10.4 0 10.8477 0 11.4V12.6C0 13.1523 0.447716 13.6 1 13.6Z" fill="#3A3A3A"/>
<path d="M10.4001 1L10.4 23C10.4 23.5523 10.8478 24 11.4 24H12.6C13.1523 24 13.6 23.5523 13.6 23L13.6001 1C13.6001 0.447715 13.1524 0 12.6001 0L11.4001 0C10.8478 0 10.4001 0.447716 10.4001 1Z" fill="#3A3A3A"/>
<path d="M10.4001 1L10.4 23C10.4 23.5523 10.8478 24 11.4 24H12.6C13.1523 24 13.6 23.5523 13.6 23L13.6001 1C13.6001 0.447715 13.1524 0 12.6001 0L11.4001 0C10.8478 0 10.4001 0.447716 10.4001 1Z" fill="#3A3A3A"/>
</svg>
