<svg width="32" height="32" viewBox="0 0 32 32" fill="none" xmlns="http://www.w3.org/2000/svg">
<path d="M26.082 20.992L20.894 26.18L19.89 24.372L24.22 20.04L26.082 20.992ZM22.688 18.74H22.676L18.718 22.698L3.992 14.506L4.012 5.494L8.714 10.198C8.45031 10.7558 8.36453 11.3812 8.46828 11.9894C8.57203 12.5976 8.8603 13.1592 9.294 13.598C9.8583 14.1564 10.6201 14.4696 11.414 14.4696C12.2079 14.4696 12.9697 14.1564 13.534 13.598C14.0924 13.0337 14.4056 12.2719 14.4056 11.478C14.4056 10.6841 14.0924 9.9223 13.534 9.358C13.0937 8.92453 12.5307 8.63695 11.9215 8.53427C11.3122 8.43159 10.6861 8.51878 10.128 8.784L5.352 4.006L14.488 4.018L22.688 18.74ZM12.418 11.48C12.418 11.732 12.32 11.986 12.122 12.186C11.722 12.586 11.106 12.586 10.708 12.186C10.308 11.786 10.308 11.17 10.708 10.772C11.106 10.372 11.722 10.372 12.122 10.772C12.322 10.972 12.418 11.226 12.418 11.48Z" fill="#c3c3c3"/>
</svg>
