<svg width="22" height="22 " viewBox="0 0 32 32" fill="none" xmlns="http://www.w3.org/2000/svg">
<path d="M25.9924 8.88043C25.9923 8.69986 25.9563 8.52109 25.8865 8.35438C25.8167 8.18767 25.7145 8.0363 25.5857 7.90896C25.457 7.78162 25.3042 7.68081 25.1361 7.61231C24.9681 7.54382 24.7881 7.50899 24.6065 7.50983C24.4249 7.51066 24.2452 7.54715 24.0778 7.61718C23.9104 7.68722 23.7586 7.78943 23.631 7.91795C23.5034 8.04647 23.4026 8.19877 23.3344 8.36612C23.2661 8.53346 23.2318 8.71256 23.2334 8.89312C23.2458 10.231 23.2756 12.7272 23.2887 13.8052C23.2895 13.8729 23.2768 13.9402 23.2513 14.003C23.2257 14.0658 23.1879 14.1229 23.14 14.1711C23.092 14.2192 23.035 14.2575 22.9721 14.2835C22.9092 14.3096 22.8417 14.3229 22.7736 14.3229H22.7591C22.6915 14.323 22.6244 14.3099 22.5619 14.2843C22.4994 14.2586 22.4425 14.221 22.3947 14.1734C22.3468 14.1259 22.3088 14.0694 22.283 14.0073C22.2571 13.9451 22.2438 13.8785 22.2439 13.8112C22.2462 12.4257 22.263 8.57864 22.272 6.62363C22.2728 6.44303 22.2378 6.26405 22.1688 6.09698C22.0998 5.92991 21.9983 5.77803 21.8701 5.65008C21.7419 5.52213 21.5896 5.42062 21.4218 5.3514C21.254 5.28217 21.0742 5.24659 20.8925 5.2467H20.8534C20.6716 5.24659 20.4916 5.28221 20.3238 5.35151C20.1559 5.42082 20.0035 5.52245 19.8753 5.65054C19.7471 5.77864 19.6456 5.93068 19.5767 6.09792C19.5078 6.26515 19.4729 6.44428 19.4739 6.62499C19.4833 8.28202 19.499 11.3749 19.5051 12.5946C19.5054 12.6621 19.4923 12.7289 19.4665 12.7912C19.4408 12.8536 19.4028 12.9103 19.355 12.958C19.3071 13.0057 19.2502 13.0436 19.1875 13.0693C19.1249 13.0951 19.0577 13.1083 18.9899 13.1082H18.9848C18.9171 13.1084 18.8501 13.0952 18.7875 13.0696C18.7249 13.0439 18.6681 13.0062 18.6202 12.9587C18.5723 12.9111 18.5344 12.8546 18.5085 12.7924C18.4827 12.7302 18.4695 12.6636 18.4696 12.5963C18.4747 10.7688 18.4807 7.58707 18.486 5.37249C18.4864 5.19232 18.451 5.01383 18.3819 4.84726C18.3128 4.6807 18.2114 4.52933 18.0833 4.40182C17.9553 4.27432 17.8032 4.1732 17.6357 4.10425C17.4683 4.03529 17.2889 3.99987 17.1076 4H17.0635C16.8819 3.99986 16.7021 4.03538 16.5344 4.10453C16.3667 4.17368 16.2143 4.27508 16.0861 4.40293C15.958 4.53078 15.8564 4.68254 15.7874 4.84951C15.7184 5.01648 15.6832 5.19536 15.6839 5.37587C15.6931 7.63599 15.7013 10.8955 15.7093 12.7744C15.7094 12.8418 15.696 12.9084 15.6701 12.9706C15.6442 13.0328 15.6061 13.0893 15.5582 13.1369C15.5103 13.1845 15.4534 13.2222 15.3909 13.2479C15.3283 13.2736 15.2612 13.2868 15.1935 13.2867C15.1258 13.2866 15.0587 13.2733 14.9962 13.2474C14.9337 13.2215 14.8769 13.1837 14.8291 13.1359C14.7813 13.0882 14.7435 13.0316 14.7177 12.9694C14.6919 12.9071 14.6788 12.8404 14.679 12.7731C14.6851 11.3622 14.6921 8.82807 14.6986 7.05314C14.6992 6.87264 14.664 6.69378 14.595 6.52684C14.5259 6.35989 14.4244 6.20814 14.2962 6.0803C14.1681 5.95246 14.0158 5.85104 13.8481 5.78186C13.6804 5.71269 13.5006 5.67711 13.319 5.67718H13.2877C13.1065 5.67703 12.9271 5.71238 12.7598 5.78121C12.5924 5.85004 12.4402 5.95101 12.3121 6.07833C12.184 6.20565 12.0824 6.35683 12.0131 6.52323C11.9437 6.68963 11.9081 6.86798 11.9082 7.04808C11.9094 9.56559 11.9097 15.2322 11.9115 18.3804L9.26653 15.9169C8.90626 15.5822 8.43139 15.3963 7.93831 15.3971C7.44523 15.3978 6.97091 15.5851 6.61164 15.9208C6.25238 16.2566 6.03509 16.7157 6.00389 17.205C5.9727 17.6942 6.12993 18.177 6.44368 18.5551L12.7002 26.0799C12.8355 26.2746 12.9867 26.4578 13.1525 26.6276L13.2104 26.7001L13.2147 26.6979C13.6287 27.111 14.1208 27.4387 14.6626 27.6621C15.2044 27.8856 15.7853 28.0004 16.3719 28H21.5417C22.1272 28.0001 22.707 27.8855 23.2479 27.6628C23.7889 27.44 24.2804 27.1135 24.6944 26.7019C25.1084 26.2903 25.4368 25.8016 25.6608 25.2638C25.8848 24.726 26.0001 24.1495 26 23.5674C25.9964 19.7154 25.9943 12.074 25.9924 8.88043Z" fill="#C3C3C3"/>
</svg>
