<svg width="22" height="22" viewBox="0 0 32 32" fill="none" xmlns="http://www.w3.org/2000/svg">
<path d="M13 10.5C13 9.60998 12.7361 8.73995 12.2416 7.99993C11.7471 7.25991 11.0443 6.68314 10.2221 6.34254C9.39981 6.00195 8.49501 5.91283 7.6221 6.08647C6.74918 6.2601 5.94736 6.68868 5.31802 7.31802C4.68868 7.94736 4.2601 8.74918 4.08647 9.62209C3.91283 10.495 4.00195 11.3998 4.34254 12.2221C4.68314 13.0443 5.25991 13.7471 5.99994 14.2416C6.73996 14.7361 7.60999 15 8.5 15C9.69291 14.9981 10.8364 14.5234 11.6799 13.6799C12.5235 12.8364 12.9982 11.6929 13 10.5ZM26.5 4H18.5C18.1022 4 17.7206 4.15804 17.4393 4.43934C17.158 4.72064 17 5.10218 17 5.5V19.4L15.29 16.79C15.0637 16.4402 14.7535 16.1526 14.3875 15.9534C14.0216 15.7543 13.6116 15.65 13.195 15.65C12.7784 15.65 12.3684 15.7543 12.0025 15.9534C11.6365 16.1526 11.3263 16.4402 11.1 16.79L6.3 24.13C6.05302 24.507 5.91255 24.9437 5.89344 25.394C5.87434 25.8443 5.97732 26.2914 6.19148 26.688C6.40564 27.0845 6.72303 27.4158 7.11004 27.6468C7.49705 27.8777 7.93931 27.9998 8.39 28H18C18.4499 27.9978 18.8909 27.8745 19.2767 27.6431C19.6625 27.4117 19.979 27.0807 20.1927 26.6848C20.4065 26.289 20.5098 25.8429 20.4917 25.3933C20.4736 24.9438 20.3349 24.5074 20.09 24.13L20 24H26.5C26.8978 24 27.2794 23.842 27.5607 23.5607C27.842 23.2794 28 22.8978 28 22.5V5.5C28 5.10218 27.842 4.72064 27.5607 4.43934C27.2794 4.15804 26.8978 4 26.5 4Z" fill="#C3C3C3"/>
</svg>
