<svg width="48" height="48" viewBox="0 0 64 64" fill="none" xmlns="http://www.w3.org/2000/svg">
<g clip-path="url(#clip0_79_29)">
<path d="M9.16095 47.6931H5L16.1443 17H20.676L31.9646 47.6931H27.8445L21.3354 29.4833C21.23 29.1849 21.1264 28.8859 21.0245 28.5864C20.7039 27.645 20.3471 26.5497 19.9542 25.3004C19.9511 25.2904 19.948 25.2804 19.9449 25.2704C19.804 24.8215 19.6648 24.3721 19.5273 23.9221C19.1172 22.582 18.6517 21.0146 18.1309 19.2199C18.0934 19.0911 18.056 18.9623 18.0186 18.8335H18.7603C18.583 19.4641 18.4038 20.0943 18.2228 20.7239C17.7385 22.408 17.303 23.8648 16.9163 25.0941C16.8891 25.1805 16.8618 25.2668 16.8344 25.3531C16.7054 25.7599 16.5756 26.1665 16.445 26.5728C16.1253 27.5675 15.844 28.424 15.6013 29.142C15.5628 29.2558 15.5242 29.3696 15.4853 29.4833L9.16095 47.6931ZM26.3616 39.1235H10.6029V35.7043H26.3616V39.1235Z" fill="#C3C3C3" stroke="#C3C3C3" stroke-width="2.53125" stroke-linecap="round"/>
<path d="M52.278 32.5739V32.4552C52.278 31.5324 52.1067 30.7513 51.764 30.1119C51.4211 29.4725 50.9069 28.9814 50.2214 28.6385C49.5359 28.2959 48.6789 28.1246 47.6504 28.1246C47.2456 28.1229 46.8412 28.1501 46.4403 28.206C45.9953 28.27 45.5849 28.3716 45.2091 28.5109C45.1188 28.5444 45.0296 28.5804 44.9414 28.6191C44.6063 28.7642 44.284 28.9374 43.9779 29.1367C43.6625 29.3418 43.3719 29.5827 43.112 29.8547C42.8888 30.089 42.6832 30.3394 42.4968 30.604C42.3269 30.8449 42.1787 31.1006 42.0542 31.3678L38.6331 30.2403C38.877 29.6525 39.182 29.092 39.5432 28.568C39.9287 28.0084 40.395 27.509 40.927 27.0862C41.8893 26.3283 42.9506 25.7911 44.1107 25.4747C45.2709 25.1582 46.4179 25 47.5516 25C47.8949 25.001 48.2379 25.018 48.5795 25.051C48.9286 25.084 49.296 25.1327 49.6815 25.1972C49.8123 25.2191 49.9429 25.2423 50.0732 25.2669C50.968 25.4393 51.8276 25.7601 52.6166 26.2162C52.6788 26.2517 52.7406 26.2879 52.802 26.3248C53.4205 26.7015 53.9612 27.193 54.3953 27.7726C54.6108 28.0567 54.8053 28.3561 54.9773 28.6685C55.4125 29.4536 55.6827 30.4381 55.7877 31.6217C55.8218 32.0173 55.8384 32.4142 55.8375 32.8112V47.3856H52.3375V44.3801H52.1002C51.8496 44.8941 51.4475 45.4247 50.8937 45.9717C50.5741 46.2839 50.2197 46.5583 49.8374 46.7894C49.4859 47.003 49.1184 47.1891 48.7383 47.3463C48.2991 47.5266 47.842 47.6598 47.3746 47.7436C46.8133 47.8478 46.2 47.8999 45.5347 47.8999C44.7417 47.9043 43.9512 47.8105 43.1813 47.6209C42.6818 47.496 42.1952 47.3246 41.7277 47.1089C40.5875 46.5816 39.6811 45.8104 39.0086 44.7952C38.5586 44.106 38.2561 43.3312 38.12 42.5195C38.0382 42.0498 37.9981 41.5739 38.0001 41.0971C37.9979 40.671 38.0304 40.2454 38.0973 39.8246C38.1729 39.3643 38.2929 38.9458 38.4573 38.5691C38.5411 38.3762 38.6395 38.1901 38.7518 38.0122C39.2477 37.226 39.9393 36.5821 40.759 36.1436C41.596 35.6886 42.5221 35.3491 43.5373 35.125C44.5525 34.9009 45.5741 34.723 46.6023 34.5912C46.9167 34.5503 47.2311 34.51 47.5455 34.4701C48.3167 34.3724 48.9865 34.291 49.5552 34.2259C49.6453 34.2156 49.7355 34.2055 49.8257 34.1955C50.6565 34.1032 51.2729 33.945 51.6749 33.7209C51.827 33.6386 51.958 33.5222 52.0577 33.3808C52.1573 33.2394 52.2229 33.0769 52.2492 32.906C52.269 32.7964 52.2786 32.6853 52.278 32.5739ZM52.278 39.3965V36.3315C52.1643 36.4657 51.9452 36.5899 51.6207 36.7041C51.5243 36.7377 51.4269 36.7684 51.3287 36.796C50.841 36.9345 50.284 37.0564 49.6576 37.1617C49.2003 37.2391 48.7418 37.309 48.2822 37.3715C48.1344 37.3914 47.9864 37.4105 47.8384 37.4286C47.2517 37.5013 46.787 37.5574 46.4444 37.5971C45.8372 37.6701 45.2363 37.7887 44.647 37.9519C44.4433 38.0088 44.2414 38.0717 44.0415 38.1406C43.7101 38.2529 43.3917 38.4004 43.0918 38.5805C42.78 38.7678 42.4971 38.9993 42.2518 39.2677C41.9727 39.5804 41.7767 39.9582 41.682 40.3665C41.619 40.6211 41.5852 40.8984 41.5803 41.1984C41.5798 41.224 41.5796 41.2497 41.5795 41.2753C41.5773 41.5788 41.6128 41.8813 41.6852 42.176C41.7759 42.5451 41.9419 42.8915 42.1728 43.1934C42.4786 43.5866 42.8657 43.909 43.3076 44.1387C43.4652 44.2224 43.6278 44.2963 43.7944 44.3602C44.2099 44.5174 44.642 44.6264 45.0823 44.685C45.4353 44.733 45.7912 44.7566 46.1475 44.7555C47.3682 44.7555 48.4135 44.5352 49.2834 44.0945C49.3529 44.0594 49.4217 44.0227 49.4895 43.9844C50.3994 43.4703 51.0916 42.8012 51.566 41.9772C51.8973 41.4126 52.1197 40.7908 52.2217 40.1442C52.2593 39.8967 52.2781 39.6468 52.278 39.3965Z" fill="#C3C3C3" stroke="#C3C3C3" stroke-width="2.43" stroke-linecap="round"/>
</g>
<defs>
<clipPath id="clip0_79_29">
<rect width="64" height="64" fill="white" transform="matrix(0 -1 1 0 0 64)"/>
</clipPath>
</defs>
</svg>
