<svg width="22" height="22" viewBox="0 0 32 32" fill="none" xmlns="http://www.w3.org/2000/svg">
<path d="M23.6348 16.1408L19.3022 17.4946C18.9708 17.5949 18.8287 17.9961 19.0181 18.2969L22.4984 23.9631C22.6404 24.2138 22.5931 24.5397 22.3563 24.7152L19.9414 26.3699C19.7047 26.5204 19.3969 26.4702 19.2312 26.2195L15.7509 20.5533C15.5615 20.2525 15.159 20.2274 14.946 20.5032L11.9865 24.1135C11.7024 24.4645 11.1579 24.289 11.0869 23.8377L9.00345 6.61361C8.9561 6.16232 9.40593 5.83639 9.78473 6.08711L23.7532 15.163C24.132 15.4137 24.0609 16.0154 23.6348 16.1408Z" fill="#C3C3C3"/>
</svg>
