<svg width="22" height="22" viewBox="0 0 32 32" fill="none" xmlns="http://www.w3.org/2000/svg">
<path d="M23 27H9C7.93913 27 6.92172 26.5786 6.17157 25.8284C5.42143 25.0783 5 24.0609 5 23V9C5 7.93913 5.42143 6.92172 6.17157 6.17157C6.92172 5.42143 7.93913 5 9 5H23C24.0609 5 25.0783 5.42143 25.8284 6.17157C26.5786 6.92172 27 7.93913 27 9V23C27 24.0609 26.5786 25.0783 25.8284 25.8284C25.0783 26.5786 24.0609 27 23 27ZM9 7C8.46957 7 7.96086 7.21071 7.58579 7.58579C7.21071 7.96086 7 8.46957 7 9V23C7 23.5304 7.21071 24.0391 7.58579 24.4142C7.96086 24.7893 8.46957 25 9 25H23C23.5304 25 24.0391 24.7893 24.4142 24.4142C24.7893 24.0391 25 23.5304 25 23V9C25 8.46957 24.7893 7.96086 24.4142 7.58579C24.0391 7.21071 23.5304 7 23 7H9Z" fill="#C3C3C3"/>
<rect x="7" y="7" width="18" height="18" fill="#C3C3C3"/>
</svg>
